<svg width="0" height="0" class="hidden">
  <symbol xmlns="http://www.w3.org/2000/svg" viewBox="-160.5 -13 1024 1024" id="ipad">
    <path d="M660 0H42C18.8 0 0 18.8 0 42v910.5c0 23.2 18.8 42 42 42h618c23.2 0 42-18.8 42-42V42c0-23.2-18.8-42-42-42zM350.917 39.333a6.418 6.418 0 11-.001 12.835 6.418 6.418 0 01.001-12.835zm1.578 937.554c-13.488 0-24.422-10.934-24.422-24.422s10.934-24.422 24.422-24.422 24.422 10.934 24.422 24.422-10.934 24.422-24.422 24.422zM657.5 905h-612V91h612v814z"></path>
  </symbol>
  <symbol xmlns="http://www.w3.org/2000/svg" viewBox="0 0 612 612" id="laptop">
    <path d="M578.766 51.487v-.895H32.934v.895C15.272 52.701 2.095 66.753 0 83.808v358.726c0 6.898 1.795 12.712 4.791 17.949 6.893 12.137 17.068 18.269 31.14 18.269h197.012v49.695h-37.425c-9.281 0-16.467 7.218-16.467 16.48s7.186 16.479 16.467 16.479h220.666c9.281 0 16.768-7.218 16.768-16.479 0-9.263-7.486-16.48-16.768-16.48h-37.425v-49.695H575.77c14.078 0 24.343-6.132 31.14-18.269 3.085-5.493 5.091-11.37 5.091-17.949V83.809c-2.096-17.056-16.168-31.108-33.235-32.322zm0 35.324v355.724c0 2.108-.895 3.002-2.996 3.002H35.93c-2.095 0-2.996-.894-2.996-3.002V83.809h545.831v3.002z"></path>
  </symbol>
  <symbol xmlns="http://www.w3.org/2000/svg" viewBox="0 0 792 792" id="mobilephone">
    <path d="M521.806 792s71.889 0 71.889-71.997V71.997C593.694 0 521.806 0 521.806 0H270.194s-71.889 0-71.889 71.997v648.006C198.306 792 270.194 792 270.194 792h251.612zM396 762.022c-19.841 0-35.944-16.104-35.944-35.944 0-19.842 16.103-35.944 35.944-35.944 19.842 0 35.944 16.103 35.944 35.944S415.842 762.022 396 762.022zM342.083 43.888c0-4.457 2.121-7.944 4.78-7.944h98.272c2.624 0 4.781 3.559 4.781 7.944v2.121c0 4.457-2.157 7.944-4.781 7.944h-98.272c-2.624 0-4.78-3.559-4.78-7.944v-2.121zM234.25 89.861h323.5v575.111h-323.5V89.861z"></path>
  </symbol>
</svg>
